<!DOCTYPE svg PUBLIC "-//W3C//DTD SVG 1.1//EN" "http://www.w3.org/Graphics/SVG/1.1/DTD/svg11.dtd">
<!-- Uploaded to: SVG Repo, www.svgrepo.com, Transformed by: SVG Repo Mixer Tools -->
<svg fill="#000000" width="800px" height="800px" viewBox="0 0 24 24" id="paint-brush-2" data-name="Flat Color" xmlns="http://www.w3.org/2000/svg" class="icon flat-color">
<g id="SVGRepo_bgCarrier" stroke-width="0"/>
<g id="SVGRepo_tracerCarrier" stroke-linecap="round" stroke-linejoin="round"/>
<g id="SVGRepo_iconCarrier">
<path id="primary" d="M7.91,11.45a1,1,0,0,1,.7-.71A3.24,3.24,0,0,0,10,9.9a3,3,0,0,0,.74-1.27,1,1,0,0,1,.71-.7,1,1,0,0,1,1,.26l8.68,8.69a3,3,0,1,1-4.23,4.24L8.17,12.41A1,1,0,0,1,7.91,11.45Z" style="fill: #000000;"/>
<path id="secondary" d="M2.37,3.68a6.42,6.42,0,0,1,9.12.48,4.94,4.94,0,0,1,1.4,3.58,5.12,5.12,0,0,1-1.45,3.57,5.23,5.23,0,0,1-3.25,1.55H7.83a4,4,0,0,1-2.9-1.18A6.4,6.4,0,0,1,3.39,8.26,8.5,8.5,0,0,0,2.18,5,1,1,0,0,1,2.37,3.68Z" style="fill: #ffffff;"/>
</g>
</svg>